<svg width="332" height="318" viewBox="0 0 332 318" fill="none" xmlns="http://www.w3.org/2000/svg">
<path d="M129.942 252.624L129.372 208.318C129.167 192.381 141.92 179.295 157.857 179.09C173.794 178.885 186.88 191.639 187.085 207.576L187.184 215.301C187.444 235.504 171.276 252.093 151.073 252.353L129.942 252.624Z" fill="#D3E2FF" stroke="white"/>
<path d="M122.436 243.674L122.304 287.984C122.257 303.922 109.298 316.804 93.3598 316.756C77.4217 316.709 64.5399 303.75 64.5874 287.812L64.6104 280.086C64.6707 259.881 81.0989 243.55 101.304 243.611L122.436 243.674Z" fill="#849AC4" stroke="white"/>
<circle cx="13.8766" cy="83.8766" r="12.8766" fill="#D3E2FF"/>
<mask id="mask0_49_1548" style="mask-type:alpha" maskUnits="userSpaceOnUse" x="1" y="0" width="487" height="317">
<path d="M193 179C193 153.595 213.595 133 239 133V133C264.405 133 285 153.595 285 179V317H193V179Z" fill="#C4C4C4"/>
<path d="M193 38V38C243.81 38 285 79.1898 285 130V130H193V38Z" fill="#C4C4C4"/>
<rect x="1" y="102" width="60" height="215" rx="29.5" fill="#C4C4C4"/>
<rect x="65" y="38" width="59" height="138" rx="29.5" fill="#C4C4C4"/>
<path d="M129 102H188V146.5C188 162.792 174.792 176 158.5 176V176C142.208 176 129 162.792 129 146.5V102Z" fill="#C4C4C4"/>
<circle cx="159" cy="67" r="30" fill="#840B37"/>
<circle cx="94.5" cy="209.5" r="30.5" fill="#C4C4C4"/>
</mask>
<g mask="url(#mask0_49_1548)">
<path d="M-34.3856 73.5233H138.366C139.258 73.5233 139.981 74.2462 139.981 75.1378V275.067C139.981 275.959 139.258 276.682 138.366 276.682H-34.3856C-35.2773 276.682 -36.0001 275.959 -36.0001 275.067V75.1378C-36.0001 74.2462 -35.2773 73.5233 -34.3856 73.5233Z" fill="#849AC4"/>
<path d="M105.302 95.05V96.6646H125.717C125.868 96.6646 125.989 96.7846 125.989 96.9334H127.603C127.603 95.8925 126.76 95.05 125.717 95.05H105.302ZM80.0078 95.05V96.6646H102.073V95.05H80.0078ZM54.7139 95.05V96.6646H76.7788V95.05H54.7139ZM29.42 95.05V96.6646H51.4849V95.05H29.42ZM4.12608 95.05V96.6646H26.191V95.05H4.12608ZM-21.1678 95.05V96.6646H0.897072V95.05H-21.1678ZM-23.8914 119.74H-22.2769V97.6755H-23.8914V119.74ZM-15.6482 138.911V137.296H-22.0059C-22.1568 137.296 -22.2769 137.176 -22.2769 137.027V122.969H-23.8914V137.027C-23.8914 138.068 -23.048 138.911 -22.0059 138.911H-15.6482ZM9.64571 138.911V137.296H-12.4192V138.911H9.64571ZM34.9396 138.911V137.296H12.8747V138.911H34.9396ZM60.2335 138.911V137.296H38.1686V138.911H60.2335ZM85.5275 138.911V137.296H63.4626V138.911H85.5275ZM110.821 138.911V137.296H88.7565V138.911H110.821ZM127.603 128.279H125.989V137.027C125.989 137.176 125.868 137.296 125.717 137.296H114.05V138.911H125.717C126.758 138.911 127.603 138.068 127.603 137.027V128.279ZM127.603 102.985H125.989V125.05H127.603V102.985ZM127.603 96.9334H125.989V99.7556H127.603V96.9334Z" fill="#D3E2FF"/>
<path d="M139.981 76.4844C139.981 73.5116 137.573 71.1016 134.6 71.1016H-30.6192C-33.591 71.1016 -36.0001 73.5118 -36.0001 76.4844V82.9413H139.981V76.4844Z" fill="#D3E2FF"/>
<path d="M132.043 79.7122C130.631 79.7122 129.487 78.5677 129.487 77.1559C129.487 75.7441 130.631 74.5996 132.043 74.5996C133.455 74.5996 134.599 75.7441 134.599 77.1559C134.599 78.5677 133.455 79.7122 132.043 79.7122Z" fill="#FF5645"/>
<path d="M123.702 79.7122C122.29 79.7122 121.145 78.5677 121.145 77.1559C121.145 75.7441 122.29 74.5996 123.702 74.5996C125.113 74.5996 126.258 75.7441 126.258 77.1559C126.258 78.5677 125.113 79.7122 123.702 79.7122Z" fill="#D3E2FF"/>
<path d="M115.091 79.7122C113.679 79.7122 112.534 78.5677 112.534 77.1559C112.534 75.7441 113.679 74.5996 115.091 74.5996C116.502 74.5996 117.647 75.7441 117.647 77.1559C117.647 78.5677 116.502 79.7122 115.091 79.7122Z" fill="#3ABF7C"/>
<path d="M127.579 150.48C127.579 149.886 127.099 149.405 126.502 149.405H-21.7625C-22.3573 149.405 -22.8395 149.885 -22.8395 150.48V196.032C-22.8395 196.625 -22.3601 197.106 -21.7625 197.106H126.502C127.096 197.106 127.579 196.626 127.579 196.032V150.48ZM127.065 205.644H69.7499C69.4527 205.644 69.2118 205.885 69.2118 206.182V212.64C69.2118 212.937 69.4527 213.178 69.7499 213.178H127.065C127.362 213.178 127.603 212.937 127.603 212.64V206.182C127.603 205.885 127.362 205.644 127.065 205.644ZM127.065 218.022H86.4331C86.1359 218.022 85.895 218.262 85.895 218.56V225.018C85.895 225.315 86.1359 225.556 86.4331 225.556H127.065C127.362 225.556 127.603 225.315 127.603 225.018V218.56C127.603 218.262 127.362 218.022 127.065 218.022ZM127.065 230.668H78.0915C77.7943 230.668 77.5534 230.909 77.5534 231.207V237.665C77.5534 237.962 77.7943 238.203 78.0915 238.203H127.065C127.362 238.203 127.603 237.962 127.603 237.665V231.207C127.603 230.909 127.362 230.668 127.065 230.668ZM127.065 243.046H94.7748C94.4775 243.046 94.2366 243.287 94.2366 243.585V250.043C94.2366 250.34 94.4775 250.581 94.7748 250.581H127.065C127.362 250.581 127.603 250.34 127.603 250.043V243.585C127.603 243.287 127.362 243.046 127.065 243.046ZM51.9904 218.022H-7.20816C-7.50539 218.022 -7.74633 218.262 -7.74633 218.56V225.018C-7.74633 225.315 -7.50539 225.556 -7.20816 225.556H51.9904C52.2876 225.556 52.5285 225.315 52.5285 225.018V218.56C52.5285 218.262 52.2876 218.022 51.9904 218.022ZM51.9904 230.668H-14.7425C-15.0397 230.668 -15.2807 230.909 -15.2807 231.207V237.665C-15.2807 237.962 -15.0397 238.203 -14.7425 238.203H51.9904C52.2876 238.203 52.5285 237.962 52.5285 237.665V231.207C52.5285 230.909 52.2876 230.668 51.9904 230.668ZM51.9904 243.046H-22.2769C-22.5741 243.046 -22.815 243.287 -22.815 243.585V250.043C-22.815 250.34 -22.5741 250.581 -22.2769 250.581H51.9904C52.2876 250.581 52.5285 250.34 52.5285 250.043V243.585C52.5285 243.287 52.2876 243.046 51.9904 243.046ZM51.9904 255.424H0.326194C0.0289715 255.424 -0.211975 255.665 -0.211975 255.962V262.42C-0.211975 262.718 0.0289715 262.959 0.326194 262.959H51.9904C52.2876 262.959 52.5285 262.718 52.5285 262.42V255.962C52.5285 255.665 52.2876 255.424 51.9904 255.424ZM51.9659 205.693H-22.3013C-22.5986 205.693 -22.8395 205.934 -22.8395 206.231V212.787C-22.8395 213.084 -22.5986 213.325 -22.3013 213.325H51.9659C52.2631 213.325 52.5041 213.084 52.5041 212.787V206.231C52.5041 205.934 52.2631 205.693 51.9659 205.693Z" fill="#D3E2FF"/>
<path fill-rule="evenodd" clip-rule="evenodd" d="M50.6252 182.747L51.7404 182.76L51.7322 182.747H65.3766C65.6752 182.747 65.7897 182.542 65.6329 182.29L55.9681 166.773C55.811 166.52 55.5497 166.519 55.3869 166.765L48.4193 177.417L45.7404 173.107C45.5834 172.854 45.3208 172.846 45.1519 173.091L38.987 182.045C38.819 182.289 38.9216 182.494 39.2211 182.503L44.9012 182.679L45.1439 182.682L45.1051 182.747C45.1051 182.747 45.346 182.747 45.6457 182.747H50.6252ZM45.236 169.158C46.4648 169.158 47.461 168.153 47.461 166.914C47.461 165.674 46.4648 164.669 45.236 164.669C44.0071 164.669 43.011 165.674 43.011 166.914C43.011 168.153 44.0071 169.158 45.236 169.158Z" fill="white"/>
<path d="M277.887 306.012H250.44C249.771 306.012 249.229 306.554 249.229 307.223C249.229 307.892 249.771 308.434 250.44 308.434H277.887C278.556 308.434 279.098 307.892 279.098 307.223C279.098 306.554 278.556 306.012 277.887 306.012ZM192.856 306.012H147.112C146.443 306.012 145.901 306.554 145.901 307.223C145.901 307.892 146.443 308.434 147.112 308.434H192.856C193.525 308.434 194.067 307.892 194.067 307.223C194.067 306.554 193.525 306.012 192.856 306.012Z" fill="#D3E2FF"/>
<path d="M146.973 306.02C147.019 306.015 147.065 306.012 147.112 306.012H192.856C192.935 306.012 193.012 306.02 193.086 306.034L190.925 288.793H170.69L165.873 292.345C164.77 293.448 163.559 294.444 162.267 295.332C159.119 297.431 157.478 297.404 152.688 299.718C151.396 300.337 150.159 301.01 148.921 301.79C148.329 302.328 147.279 303.404 146.956 304.696C146.903 304.911 146.903 305.127 146.876 305.315C146.876 305.566 146.913 305.802 146.973 306.02ZM250.095 306.062C250.204 306.029 250.32 306.012 250.44 306.012H277.887C277.958 306.012 278.028 306.018 278.096 306.03L271.596 289.345L252.33 291.955L250.095 306.062Z" fill="#474961"/>
<path d="M258.886 217.547C259.002 217.522 259.117 217.497 259.233 217.471C253.017 181.221 248.278 159.498 245.017 152.3C241.755 145.103 237.91 140.006 233.484 137.01C229.26 132.197 221.81 132.465 211.504 132.163C211.242 132.151 210.945 132.154 210.683 132.141C200.027 131.961 201.799 132.369 198.986 133.239C185.486 136.845 174.287 159.617 165.389 201.555L162.561 215.292C162.601 215.18 162.643 215.069 162.686 214.96C162.609 215.315 162.572 215.675 162.574 216.04C162.289 221.909 166.844 226.509 176.238 229.84C181.978 231.874 193.212 237.474 211.68 239.241C219.52 239.991 234.152 239.828 255.575 238.753C259.115 232.806 260.63 228.045 260.12 224.471C259.84 222.513 259.429 220.204 258.886 217.547H258.886Z" fill="#2F2E41"/>
<path opacity="0.176986" d="M258.901 217.617C227.429 224.444 204.174 223.917 189.135 216.035C174.391 208.308 165.58 207.925 162.703 214.885C162.614 215.264 162.571 215.649 162.574 216.04C162.289 221.909 166.844 226.509 176.238 229.84C181.978 231.874 193.212 237.474 211.68 239.241C219.52 239.991 234.152 239.828 255.575 238.753C259.115 232.806 260.63 228.045 260.12 224.471C259.843 222.53 259.436 220.245 258.901 217.617Z" fill="#444444"/>
<path d="M230.251 111.295C233.263 110.831 235.68 110.336 237.501 109.811C238.993 109.601 241.274 109.009 242.168 107.253C243.472 104.733 241.086 101.291 238.423 97.4264C235.218 92.7955 233.254 91.1252 230.166 88.9405C224.907 85.2213 221.66 85.0771 219.304 87.47C219.067 87.7108 218.831 88.1092 218.596 88.6653C217.924 88.5675 217.237 88.5217 216.538 88.5318L210.619 88.6394C203.111 88.7202 197.137 95.1513 197.245 102.928V103.412L197.407 118.4L197.552 125.419C197.652 130.25 201.597 134.115 206.43 134.115H221.525C221.558 134.115 221.591 134.114 221.624 134.114C226.527 134.06 230.459 130.04 230.404 125.136L230.251 111.295Z" fill="#D3E2FF"/>
<path d="M107.446 118.431L310.595 107.784C312.079 107.706 313.345 108.846 313.423 110.33L316.859 175.897C316.937 177.381 315.797 178.647 314.313 178.725L111.164 189.372C109.68 189.449 108.414 188.309 108.336 186.825L104.9 121.259C104.822 119.775 105.962 118.508 107.446 118.431Z" fill="white"/>
<path d="M175.695 135.332L302.529 128.685C303.123 128.654 303.629 129.11 303.66 129.704L304.336 142.602C304.367 143.196 303.911 143.702 303.318 143.733L176.484 150.38C175.89 150.411 175.384 149.955 175.353 149.362L174.677 136.464C174.646 135.87 175.102 135.363 175.695 135.332Z" fill="white"/>
<path d="M208.482 84.9173L208.833 89.3871C208.85 89.607 209 89.7942 209.211 89.8592C210.387 90.2219 211.53 90.3536 212.64 90.2544C213.782 90.1524 215.462 89.7429 217.679 89.0258C217.942 88.9408 218.098 88.6707 218.04 88.4006L216.257 80.1071L216.152 80.1368C217.131 78.16 217.751 77.0541 218.012 76.819C219.004 75.8681 219.788 69.9984 215.364 70.3522C214.876 70.3551 214.402 70.4946 213.946 70.7173L213.916 70.7412C213.768 70.8609 213.578 70.868 213.388 70.8751C212.933 70.8273 212.592 70.4668 212.613 70.009L213.106 62.9991C213.154 62.5441 212.84 62.1864 212.385 62.1386C211.395 62.0346 210.437 61.8798 209.469 61.5616C209.336 61.5476 209.231 61.5095 209.124 61.4983C208.172 61.29 203.041 60.426 199.856 63.9603C199.576 64.3097 199.295 64.659 199.069 65.014C198.486 65.9267 198.159 66.9747 198.121 68.1071L197.904 73.0085C197.907 73.4958 197.909 73.9832 197.963 74.5029C198.615 80.6591 200.906 85.1207 203.193 85.4964C204.368 85.6469 205.559 85.6369 206.746 85.4099C206.897 85.3534 206.8 85.4 208.482 84.9173ZM231.892 221.855L252.33 291.955L271.596 289.345L259.233 217.471L259.172 217.475C259.176 217.502 259.181 217.528 259.185 217.555C249.275 219.715 240.178 221.149 231.892 221.855ZM195.928 218.911C193.503 218.096 191.239 217.138 189.135 216.035C174.652 208.445 165.894 207.941 162.861 214.521C161.127 220.049 160.631 225.094 161.373 229.655C163.601 243.348 166.707 263.06 170.69 288.793H190.925L190.575 231.022L195.928 218.911ZM241.153 108.379C240.067 109.269 238.531 109.634 237.427 109.789C234.079 110.755 228.715 111.617 221.335 112.375L225.162 127.352L200.924 136.018C200.805 136.043 200.24 136.269 199.227 136.696C188.718 139.69 181.717 142.403 178.225 144.836C175.517 146.722 176.067 149.191 179.874 152.243C182.905 154.671 186.97 155.374 190.64 154.103L206.305 148.678C206.304 148.659 206.303 148.64 206.302 148.621C225.936 146.481 237.755 142.26 241.76 135.96C245.455 130.147 245.253 120.953 241.153 108.379ZM180.526 114.638C174.049 107.975 168.12 106.903 162.741 111.422C157.361 115.942 163.29 117.014 180.526 114.638Z" fill="#FFCDCD"/>
<path d="M223.719 73.9271C224.535 74.2501 225.342 74.3744 226.139 74.2999C231.417 73.8069 234.993 69.1707 236.406 64.6387C237.819 60.1067 235.337 57.7817 231.366 55.246C227.395 52.7102 222.849 54.5181 219.06 56.4782C216.845 57.6238 215.545 59.611 215.162 62.4397C214.562 62.3855 213.901 62.3169 213.161 62.2202C212.305 62.1302 211.35 61.8976 209.761 61.5683C209.628 61.5543 208.875 61.3683 208.767 61.357C207.815 61.1487 203.012 60.45 199.826 63.9843C199.845 64.0674 200.668 63.9843 203.079 65.5849C205.824 67.4078 208.53 75.397 210.951 75.2727C210.977 75.2722 211.032 75.2989 211.114 75.353L211.007 75.2515L212.49 72.2147C212.825 71.6006 213.333 71.1399 213.913 70.768C214.37 70.5454 214.844 70.4059 215.332 70.403C216.627 70.4309 217.915 71.5674 218.312 72.9349C218.683 74.2996 218.287 75.7462 217.244 76.6646C216.585 77.2718 215.734 77.6423 214.834 77.7101L213.74 77.5742C213.784 77.6137 213.829 77.6538 213.874 77.6943C215.74 80.6371 216.672 82.1085 216.672 82.1085C216.672 82.1085 217.48 81.8909 219.096 81.4559C221.082 80.7685 222.623 78.2589 223.719 73.9271ZM201.826 71.9868C202.347 72.1768 203.19 72.4007 203.959 72.2921C205.245 72.1567 204.146 71.2836 203.001 71.1091C202.468 71.0261 202.018 71.1952 201.728 71.3812C201.521 71.5488 201.564 71.9051 201.826 71.9868ZM197.288 71.4016C197.804 71.6452 198.611 71.9464 199.398 71.921C200.729 71.8715 199.695 70.897 198.585 70.645C198.005 70.5029 197.584 70.648 197.27 70.8044C197.012 70.9397 197.029 71.2932 197.288 71.4016Z" fill="#482D1F"/>
<path d="M203.327 75.4725C203.628 75.1795 203.6 74.4189 203.567 73.9555C203.577 73.6048 203.278 73.357 202.984 73.3261C202.794 73.3331 202.542 73.4149 202.449 73.7839C202.169 74.6473 202.922 75.9711 203.327 75.4725ZM198.914 74.9816C199.162 74.683 199.187 73.9281 199.154 73.4647C199.164 73.114 198.866 72.8661 198.571 72.8352C198.381 72.8423 198.129 72.924 198.036 73.293C197.756 74.1565 198.536 75.4831 198.914 74.9816Z" fill="#482D1F"/>
<path d="M199.397 72.9854C199.393 72.8368 199.509 72.7128 199.658 72.7083C199.806 72.7039 199.93 72.8207 199.935 72.9692L199.983 74.5706L199.982 74.6043L199.71 77.4431C199.717 77.4759 199.74 77.4996 199.775 77.5067C200.098 77.5048 200.513 77.5049 201.021 77.5068C201.169 77.5073 201.289 77.6283 201.289 77.7769C201.288 77.9255 201.167 78.0455 201.019 78.0449C200.502 78.043 200.082 78.043 199.758 78.0449L199.729 78.0435C199.416 78.0106 199.189 77.7621 199.171 77.4612L199.172 77.4193L199.445 74.5699L199.397 72.9854Z" fill="#482D1F"/>
<path d="M201.01 80.2616C201.2 80.2545 201.693 80.1981 201.831 79.9149C201.837 79.8614 201.899 79.7868 201.878 79.7304C201.812 79.5882 200.982 79.501 200.982 79.501C199.882 79.4124 199.62 79.3308 199.526 79.4562C199.49 79.5336 199.479 79.6407 199.641 79.9012C199.834 80.3815 200.71 80.2841 201.01 80.2616Z" fill="#482D1F"/>
<path d="M158.704 136.223L121.745 138.16C119.948 138.254 119.306 138.475 118.668 138.861C118.029 139.246 117.541 139.789 117.224 140.464C116.907 141.14 116.754 141.801 116.848 143.598L117.096 148.311C117.19 150.108 117.411 150.75 117.797 151.388C118.182 152.027 118.725 152.515 119.4 152.832C120.075 153.149 120.737 153.302 122.533 153.208L159.493 151.271C161.29 151.177 161.932 150.955 162.57 150.57C163.208 150.184 163.697 149.641 164.014 148.966C164.331 148.291 164.484 147.63 164.389 145.833L164.142 141.119C164.048 139.322 163.827 138.681 163.441 138.042C163.056 137.404 162.513 136.915 161.838 136.598C161.162 136.281 160.501 136.129 158.704 136.223Z" fill="#D3E2FF"/>
<path d="M197.927 162.133L275.586 158.064C275.883 158.048 276.136 158.276 276.152 158.573L276.546 166.097C276.562 166.394 276.334 166.647 276.037 166.662L198.378 170.732C198.081 170.748 197.828 170.52 197.812 170.223L197.418 162.699C197.403 162.402 197.631 162.149 197.927 162.133Z" fill="#849AC4"/>
<path d="M147.653 164.96L191.723 162.651C192.02 162.635 192.273 162.863 192.288 163.16L192.683 170.684C192.698 170.981 192.47 171.234 192.173 171.249L148.104 173.559C147.807 173.575 147.554 173.347 147.539 173.05L147.144 165.526C147.129 165.229 147.357 164.976 147.653 164.96Z" fill="#849AC4"/>
<path d="M182.156 153.08C181.949 153.164 181.714 153.064 181.63 152.857C181.547 152.65 181.647 152.415 181.854 152.332C183.152 151.808 184.174 151.433 186.459 150.623C188.734 149.817 189.748 149.445 191.032 148.927C191.239 148.843 191.474 148.943 191.558 149.15C191.641 149.357 191.541 149.592 191.334 149.675C190.036 150.199 189.014 150.574 186.729 151.384C184.454 152.19 183.44 152.562 182.156 153.08ZM178.136 150.194C177.925 150.264 177.696 150.15 177.626 149.938C177.556 149.727 177.67 149.498 177.881 149.428C179.33 148.945 180.445 148.546 182.92 147.637C185.403 146.725 186.522 146.324 187.982 145.838C188.193 145.767 188.422 145.882 188.492 146.093C188.562 146.305 188.448 146.533 188.237 146.604C186.788 147.086 185.673 147.486 183.198 148.395C180.715 149.307 179.596 149.708 178.136 150.194Z" fill="#482D1F"/>
<path d="M217.637 111.607C215.607 106.071 214.428 102.101 214.098 99.6788C214.068 99.4579 214.223 99.2545 214.444 99.2244C214.665 99.1944 214.868 99.349 214.898 99.5699C215.218 101.919 216.384 105.845 218.395 111.329C218.471 111.539 218.364 111.77 218.155 111.847C217.945 111.924 217.713 111.816 217.637 111.607Z" fill="#482D1F"/>
</g>
<path d="M284.5 179V308.5H193.5V179C193.5 153.871 213.871 133.5 239 133.5C264.129 133.5 284.5 153.871 284.5 179Z" stroke="white"/>
<path d="M193.5 129.5V38.5013C243.637 38.7696 284.23 79.3626 284.499 129.5H193.5Z" stroke="white"/>
<path d="M129.5 102.5H187.5V146.5C187.5 162.516 174.516 175.5 158.5 175.5C142.484 175.5 129.5 162.516 129.5 146.5V102.5Z" stroke="white"/>
<path d="M123.5 69.5V146.5C123.5 162.516 110.516 175.5 94.5 175.5C78.4837 175.5 65.5 162.516 65.5 146.5V69.5C65.5 53.4837 78.4837 40.5 94.5 40.5C110.516 40.5 123.5 53.4837 123.5 69.5Z" stroke="white"/>
<rect x="1.5" y="102.5" width="59" height="214" rx="29" stroke="white"/>
<circle cx="94.5" cy="209.5" r="30" stroke="white"/>
<circle cx="13.5" cy="83.5" r="13" stroke="white"/>
<circle cx="158.5" cy="66.5" r="30" stroke="white"/>
</svg>
