<svg width="449" height="443" viewBox="0 0 449 443" fill="none" xmlns="http://www.w3.org/2000/svg">
<g id="Group 1425">
<path id="Rectangle 12" d="M203.467 341.024L202.563 270.72C202.238 245.377 222.519 224.567 247.862 224.241C273.206 223.915 294.015 244.196 294.341 269.54L294.498 281.748C294.91 313.833 269.234 340.178 237.149 340.591L203.467 341.024Z" fill="#D3E2FF" stroke="white"/>
<g id="Group 1422">
<g id="Group 1423">
<path id="Rectangle 6" d="M192.185 326.297L191.976 396.606C191.9 421.952 171.292 442.437 145.947 442.362C120.601 442.286 100.115 421.678 100.191 396.332L100.227 384.124C100.323 352.036 126.413 326.101 158.502 326.196L192.185 326.297Z" fill="#849AC4" stroke="white"/>
</g>
<circle id="ball" cx="20.3476" cy="74.0745" r="20.3476" fill="#D3E2FF"/>
<g id="Mask Group">
<mask id="mask0_19_3" style="mask-type:alpha" maskUnits="userSpaceOnUse" x="0" y="0" width="449" height="443">
<g id="Group 1420">
<path id="Rectangle 480" d="M303.399 197.699C303.399 172.294 323.994 151.699 349.399 151.699H402.777C428.183 151.699 448.777 172.294 448.777 197.699V442.457H303.399V197.699Z" fill="#C4C4C4"/>
<path id="Rectangle 481" d="M303.399 1.5802H348.777C404.006 1.5802 448.777 46.3517 448.777 101.58V146.959H303.399V1.5802Z" fill="#C4C4C4"/>
<rect id="Rectangle 482" x="0.00010848" y="102.713" width="94.8121" height="339.743" rx="29.5" fill="#C4C4C4"/>
<rect id="Rectangle 484" x="101.133" y="1.5802" width="93.2319" height="218.068" rx="29.5" fill="#C4C4C4"/>
<path id="Rectangle 485" d="M202.266 102.713H295.498V190.148C295.498 206.44 282.29 219.648 265.998 219.648H231.766C215.473 219.648 202.266 206.44 202.266 190.148V102.713Z" fill="#C4C4C4"/>
<circle id="Ellipse 6" cx="249.672" cy="47.4061" r="47.4061" fill="#840B37"/>
<circle id="Ellipse 8" cx="147.749" cy="272.585" r="48.1962" fill="#C4C4C4"/>
</g>
</mask>
<g mask="url(#mask0_19_3)">
<g id="Group">
<g id="UI / Web design / Web design 1 / 2">
<g id="Web page">
<g id="Browser">
<g id="Background">
<path id="Vector" d="M-55.9163 57.7141H217.067C218.476 57.7141 219.618 58.8563 219.618 60.2653V376.194C219.618 377.603 218.476 378.746 217.067 378.746H-55.9163C-57.3253 378.746 -58.4675 377.603 -58.4675 376.194V60.2653C-58.4675 58.8563 -57.3253 57.7141 -55.9163 57.7141Z" fill="#849AC4"/>
</g>
<g id="Input Form">
<path id="Placeholder" d="M164.818 91.7307V94.2819H197.079C197.318 94.2819 197.507 94.4716 197.507 94.7067H200.059C200.059 93.0619 198.726 91.7307 197.079 91.7307H164.818ZM124.849 91.7307V94.2819H159.716V91.7307H124.849ZM84.8791 91.7307V94.2819H119.746V91.7307H84.8791ZM44.9096 91.7307V94.2819H79.7766V91.7307H44.9096ZM4.94012 91.7307V94.2819H39.8071V91.7307H4.94012ZM-35.0294 91.7307V94.2819H-0.162368V91.7307H-35.0294ZM-39.3332 130.746H-36.7819V95.8794H-39.3332V130.746ZM-26.3073 161.04V158.488H-36.3536C-36.5921 158.488 -36.7819 158.299 -36.7819 158.063V135.849H-39.3332V158.063C-39.3332 159.708 -38.0005 161.04 -36.3536 161.04H-26.3073ZM13.6622 161.04V158.488H-21.2048V161.04H13.6622ZM53.6317 161.04V158.488H18.7647V161.04H53.6317ZM93.6012 161.04V158.488H58.7342V161.04H93.6012ZM133.571 161.04V158.488H98.7037V161.04H133.571ZM173.54 161.04V158.488H138.673V161.04H173.54ZM200.059 144.238H197.507V158.063C197.507 158.298 197.316 158.488 197.079 158.488H178.643V161.04H197.079C198.724 161.04 200.059 159.708 200.059 158.063V144.238ZM200.059 104.269H197.507V139.136H200.059V104.269ZM200.059 94.7067H197.507V99.1664H200.059V94.7067Z" fill="#D3E2FF"/>
</g>
<path id="Top bar" d="M219.618 62.3933C219.618 57.6955 215.812 53.8873 211.115 53.8873H-49.9646C-54.6606 53.8873 -58.4676 57.6959 -58.4676 62.3933V72.5964H219.618V62.3933Z" fill="#D3E2FF"/>
<path id="Burron" d="M207.075 67.4939C204.844 67.4939 203.035 65.6853 203.035 63.4544C203.035 61.2234 204.844 59.4149 207.075 59.4149C209.305 59.4149 211.114 61.2234 211.114 63.4544C211.114 65.6853 209.305 67.4939 207.075 67.4939Z" fill="#FF5645"/>
<path id="Burron_2" d="M193.893 67.4939C191.662 67.4939 189.854 65.6853 189.854 63.4544C189.854 61.2234 191.662 59.4149 193.893 59.4149C196.124 59.4149 197.933 61.2234 197.933 63.4544C197.933 65.6853 196.124 67.4939 193.893 67.4939Z" fill="#D3E2FF"/>
<path id="Burron_3" d="M180.287 67.4939C178.056 67.4939 176.247 65.6853 176.247 63.4544C176.247 61.2234 178.056 59.4149 180.287 59.4149C182.517 59.4149 184.326 61.2234 184.326 63.4544C184.326 65.6853 182.517 67.4939 180.287 67.4939Z" fill="#3ABF7C"/>
</g>
<g id="Image">
<g id="Image 1">
<g id="Group_2">
<path id="Combined Shape" d="M200.02 179.321C200.02 178.383 199.262 177.623 198.318 177.623H-35.9691C-36.909 177.623 -37.6709 178.381 -37.6709 179.321V251.302C-37.6709 252.24 -36.9134 253 -35.9691 253H198.318C199.258 253 200.02 252.242 200.02 251.302V179.321ZM199.208 266.491H108.639C108.169 266.491 107.789 266.872 107.789 267.341V277.546C107.789 278.016 108.169 278.397 108.639 278.397H199.208C199.678 278.397 200.059 278.016 200.059 277.546V267.341C200.059 266.872 199.678 266.491 199.208 266.491ZM199.208 286.05H135.002C134.532 286.05 134.151 286.431 134.151 286.901V297.106C134.151 297.576 134.532 297.956 135.002 297.956H199.208C199.678 297.956 200.059 297.576 200.059 297.106V286.901C200.059 286.431 199.678 286.05 199.208 286.05ZM199.208 306.035H121.82C121.351 306.035 120.97 306.416 120.97 306.886V317.091C120.97 317.56 121.351 317.941 121.82 317.941H199.208C199.678 317.941 200.059 317.56 200.059 317.091V306.886C200.059 306.416 199.678 306.035 199.208 306.035ZM199.208 325.595H148.183C147.714 325.595 147.333 325.975 147.333 326.445V336.65C147.333 337.12 147.714 337.501 148.183 337.501H199.208C199.678 337.501 200.059 337.12 200.059 336.65V326.445C200.059 325.975 199.678 325.595 199.208 325.595ZM80.5754 286.05H-12.9703C-13.4399 286.05 -13.8207 286.431 -13.8207 286.901V297.106C-13.8207 297.576 -13.4399 297.956 -12.9703 297.956H80.5754C81.045 297.956 81.4258 297.576 81.4258 297.106V286.901C81.4258 286.431 81.045 286.05 80.5754 286.05ZM80.5754 306.035H-24.8761C-25.3457 306.035 -25.7265 306.416 -25.7265 306.886V317.091C-25.7265 317.56 -25.3457 317.941 -24.8761 317.941H80.5754C81.045 317.941 81.4258 317.56 81.4258 317.091V306.886C81.4258 306.416 81.045 306.035 80.5754 306.035ZM80.5754 325.595H-36.7819C-37.2516 325.595 -37.6323 325.975 -37.6323 326.445V336.65C-37.6323 337.12 -37.2516 337.501 -36.7819 337.501H80.5754C81.045 337.501 81.4258 337.12 81.4258 336.65V326.445C81.4258 325.975 81.045 325.595 80.5754 325.595ZM80.5754 345.154H-1.06446C-1.53414 345.154 -1.91488 345.535 -1.91488 346.005V356.21C-1.91488 356.679 -1.53414 357.06 -1.06446 357.06H80.5754C81.045 357.06 81.4258 356.679 81.4258 356.21V346.005C81.4258 345.535 81.045 345.154 80.5754 345.154ZM80.5367 266.568H-36.8205C-37.2902 266.568 -37.6709 266.949 -37.6709 267.419V277.778C-37.6709 278.248 -37.2902 278.629 -36.8205 278.629H80.5367C81.0064 278.629 81.3871 278.248 81.3871 277.778V267.419C81.3871 266.949 81.0064 266.568 80.5367 266.568Z" fill="#D3E2FF"/>
<g id="Icons / Mountains">
<path id="Mountains" fill-rule="evenodd" clip-rule="evenodd" d="M78.4179 230.31L80.1802 230.331L80.1672 230.31H101.728C102.2 230.31 102.381 229.986 102.133 229.588L86.8608 205.067C86.6126 204.668 86.1997 204.666 85.9424 205.055L74.9322 221.887L70.6989 215.076C70.4508 214.677 70.0359 214.664 69.769 215.052L60.0273 229.2C59.7618 229.585 59.9238 229.909 60.3972 229.924L69.3729 230.202L69.7564 230.207L69.695 230.31C69.695 230.31 70.0757 230.31 70.5494 230.31H78.4179ZM69.9019 208.836C71.8437 208.836 73.4179 207.248 73.4179 205.29C73.4179 203.331 71.8437 201.743 69.9019 201.743C67.9601 201.743 66.3859 203.331 66.3859 205.29C66.3859 207.248 67.9601 208.836 69.9019 208.836Z" fill="white"/>
</g>
</g>
</g>
</g>
</g>
</g>
<g id="Group_3">
<g id="Woman">
<path id="Base" d="M437.537 425.093H394.166C393.109 425.093 392.252 425.95 392.252 427.007C392.252 428.064 393.109 428.92 394.166 428.92H437.537C438.594 428.92 439.45 428.064 439.45 427.007C439.45 425.95 438.594 425.093 437.537 425.093ZM303.171 425.093H230.886C229.829 425.093 228.973 425.95 228.973 427.007C228.973 428.064 229.829 428.92 230.886 428.92H303.171C304.228 428.92 305.085 428.064 305.085 427.007C305.085 425.95 304.228 425.093 303.171 425.093Z" fill="#D3E2FF"/>
<path id="Shoes" d="M230.668 425.106C230.739 425.098 230.812 425.093 230.886 425.093H303.171C303.296 425.093 303.418 425.105 303.535 425.128L300.12 397.884H268.144L260.533 403.497C258.789 405.24 256.876 406.814 254.835 408.217C249.86 411.533 247.266 411.491 239.698 415.148C237.657 416.126 235.701 417.189 233.745 418.422C232.809 419.272 231.151 420.973 230.641 423.014C230.556 423.354 230.556 423.694 230.513 423.992C230.513 424.389 230.572 424.762 230.668 425.106ZM393.62 425.172C393.793 425.121 393.976 425.093 394.166 425.093H437.537C437.65 425.093 437.76 425.103 437.868 425.122L427.597 398.757L397.152 402.881L393.62 425.172Z" fill="#474961"/>
<path id="Skirt" d="M407.512 285.3C407.694 285.261 407.877 285.221 408.06 285.181C398.238 227.899 390.749 193.571 385.595 182.198C380.441 170.824 374.366 162.77 367.371 158.036C360.696 150.43 348.924 150.854 332.638 150.377C332.224 150.358 331.754 150.362 331.341 150.343C314.502 150.058 317.303 150.702 312.857 152.077C291.525 157.775 273.828 193.76 259.768 260.031L255.299 281.738C255.362 281.56 255.428 281.385 255.496 281.213C255.374 281.774 255.315 282.343 255.319 282.92C254.869 292.194 262.066 299.463 276.912 304.725C285.982 307.941 303.733 316.79 332.917 319.581C345.306 320.766 368.427 320.509 402.28 318.81C407.874 309.413 410.268 301.89 409.461 296.242C409.019 293.147 408.369 289.5 407.512 285.3H407.512Z" fill="#2F2E41"/>
<path id="Shadow Skirt" opacity="0.176986" d="M407.535 285.412C357.803 296.199 321.055 295.366 297.292 282.912C273.992 270.701 260.069 270.095 255.523 281.094C255.383 281.693 255.315 282.302 255.319 282.92C254.869 292.194 262.066 299.463 276.912 304.725C285.982 307.941 303.733 316.79 332.917 319.581C345.306 320.766 368.427 320.509 402.28 318.81C407.874 309.412 410.268 301.89 409.461 296.242C409.023 293.175 408.381 289.565 407.535 285.412Z" fill="#444444"/>
<path id="T shirt" d="M362.262 117.401C367.022 116.668 370.841 115.886 373.719 115.056C376.077 114.725 379.681 113.789 381.094 111.014C383.154 107.032 379.384 101.593 375.176 95.4859C370.111 88.1682 367.009 85.5287 362.128 82.0765C353.818 76.1995 348.686 75.9715 344.964 79.7528C344.589 80.1333 344.216 80.763 343.845 81.6417C342.784 81.4871 341.698 81.4147 340.594 81.4307L331.239 81.6008C319.376 81.7283 309.936 91.8908 310.106 104.179V104.945L310.362 128.629L310.591 139.719C310.749 147.354 316.983 153.461 324.62 153.461H348.474C348.526 153.461 348.577 153.461 348.629 153.46C356.378 153.374 362.591 147.022 362.505 139.273L362.262 117.401Z" fill="#D3E2FF"/>
<path id="card" d="M168.206 128.677L489.223 111.853C491.568 111.73 493.568 113.532 493.691 115.877L499.121 219.485C499.244 221.83 497.443 223.831 495.098 223.954L174.081 240.778C171.736 240.901 169.735 239.099 169.613 236.754L164.183 133.146C164.06 130.801 165.861 128.8 168.206 128.677Z" fill="white"/>
<path id="Input Field" d="M276.054 155.385L476.477 144.881C477.415 144.832 478.215 145.553 478.264 146.491L479.332 166.873C479.382 167.811 478.661 168.611 477.723 168.66L277.3 179.164C276.362 179.213 275.562 178.492 275.513 177.554L274.444 157.172C274.395 156.234 275.116 155.434 276.054 155.385Z" fill="white"/>
<path id="Skin" d="M327.864 75.719L328.418 82.7822C328.446 83.1297 328.682 83.4254 329.016 83.5282C330.873 84.1013 332.68 84.3095 334.434 84.1528C336.238 83.9916 338.893 83.3444 342.397 82.2113C342.813 82.077 343.059 81.6501 342.967 81.2234L340.149 68.1179L339.984 68.1648C341.531 65.0411 342.51 63.2935 342.922 62.922C344.491 61.4195 345.73 52.1442 338.738 52.7033C337.968 52.7078 337.218 52.9283 336.497 53.2801L336.45 53.3179C336.217 53.5071 335.916 53.5183 335.616 53.5295C334.897 53.4539 334.358 52.8842 334.392 52.1609L335.171 41.0838C335.247 40.3649 334.75 39.7996 334.031 39.7241C332.467 39.5596 330.953 39.3151 329.424 38.8123C329.213 38.7901 329.048 38.73 328.879 38.7122C327.374 38.3831 319.266 37.0178 314.232 42.6027C313.79 43.1548 313.347 43.7068 312.989 44.2677C312.067 45.7101 311.551 47.366 311.491 49.1554L311.148 56.9007C311.152 57.6708 311.157 58.4408 311.242 59.2621C312.271 68.9902 315.891 76.0404 319.506 76.6341C321.362 76.872 323.245 76.8561 325.121 76.4975C325.359 76.4081 325.206 76.4817 327.864 75.719ZM364.856 292.108L397.152 402.881L427.597 398.757L408.06 285.181L407.963 285.187C407.971 285.229 407.978 285.271 407.985 285.314C392.325 288.727 377.949 290.992 364.856 292.108ZM308.026 287.456C304.194 286.169 300.616 284.654 297.292 282.912C274.406 270.918 260.566 270.121 255.774 280.519C253.033 289.255 252.249 297.226 253.422 304.434C256.943 326.071 261.851 357.221 268.144 397.884H300.12L299.567 306.593L308.026 287.456ZM379.49 112.794C377.774 114.2 375.347 114.776 373.603 115.021C368.312 116.548 359.835 117.91 348.175 119.108L354.221 142.775L315.921 156.468C315.733 156.508 314.839 156.866 313.238 157.54C296.632 162.27 285.569 166.558 280.051 170.402C275.772 173.384 276.641 177.285 282.658 182.107C287.447 185.945 293.871 187.055 299.67 185.046L324.423 176.474C324.422 176.444 324.421 176.414 324.419 176.383C355.445 173.001 374.121 166.332 380.45 156.376C386.288 147.191 385.969 132.663 379.49 112.794ZM283.688 122.684C273.452 112.154 264.084 110.46 255.583 117.602C247.082 124.744 256.45 126.438 283.688 122.684Z" fill="#FFCDCD"/>
<path id="Hair" d="M351.941 58.3523C353.23 58.8627 354.505 59.0591 355.765 58.9414C364.104 58.1624 369.757 50.8362 371.989 43.6747C374.221 36.5133 370.299 32.8393 364.024 28.8323C357.75 24.8253 350.566 27.6822 344.578 30.7795C341.078 32.5898 339.025 35.73 338.418 40.1999C337.471 40.1141 336.426 40.0058 335.257 39.853C333.904 39.7108 332.395 39.3433 329.885 38.8229C329.673 38.8007 328.483 38.5068 328.314 38.489C326.81 38.1599 319.219 37.0557 314.185 42.6406C314.214 42.7719 315.516 42.6406 319.325 45.1699C323.664 48.0504 327.938 60.675 331.764 60.4786C331.806 60.4777 331.892 60.52 332.023 60.6055L331.853 60.4452L334.196 55.6463C334.726 54.6759 335.529 53.9479 336.446 53.3602C337.167 53.0085 337.917 52.788 338.687 52.7834C340.734 52.8276 342.769 54.6234 343.397 56.7844C343.983 58.941 343.358 61.2268 341.709 62.6782C340.667 63.6376 339.323 64.2231 337.901 64.3302L336.172 64.1154C336.242 64.1779 336.312 64.2412 336.384 64.3052C339.332 68.9554 340.806 71.2805 340.806 71.2805C340.806 71.2805 342.082 70.9368 344.636 70.2493C347.773 69.1631 350.209 65.1974 351.941 58.3523ZM317.346 55.2862C318.169 55.5865 319.5 55.9402 320.715 55.7686C322.747 55.5546 321.011 54.175 319.202 53.8993C318.36 53.7681 317.648 54.0353 317.19 54.3292C316.863 54.5941 316.932 55.1572 317.346 55.2862ZM310.175 54.3615C310.989 54.7464 312.265 55.2224 313.509 55.1822C315.612 55.104 313.978 53.5641 312.224 53.166C311.307 52.9413 310.642 53.1707 310.145 53.4178C309.738 53.6315 309.765 54.1901 310.175 54.3615Z" fill="#482D1F"/>
<path id="Eyes" d="M319.717 60.7942C320.193 60.3312 320.149 59.1293 320.097 58.3971C320.113 57.8429 319.641 57.4513 319.176 57.4024C318.875 57.4136 318.477 57.5427 318.33 58.1259C317.887 59.4903 319.078 61.5822 319.717 60.7942ZM312.744 60.0185C313.136 59.5466 313.176 58.3537 313.124 57.6215C313.14 57.0673 312.668 56.6756 312.203 56.6268C311.902 56.6379 311.504 56.7671 311.357 57.3502C310.914 58.7146 312.148 60.811 312.744 60.0185Z" fill="#482D1F"/>
<path id="Path" d="M313.507 56.8641C313.5 56.6294 313.684 56.4334 313.919 56.4263C314.154 56.4193 314.35 56.6038 314.357 56.8385L314.433 59.3691L314.431 59.4224L314.002 63.9082C314.013 63.96 314.049 63.9974 314.104 64.0087C314.614 64.0058 315.271 64.0058 316.072 64.0088C316.307 64.0097 316.497 64.2008 316.496 64.4356C316.495 64.6705 316.304 64.8601 316.069 64.8592C315.254 64.8562 314.59 64.8562 314.078 64.8592L314.031 64.8569C313.537 64.805 313.179 64.4123 313.15 63.9368L313.151 63.8706L313.582 59.3679L313.507 56.8641Z" fill="#482D1F"/>
<path id="Path_2" d="M316.057 68.362C316.358 68.3508 317.136 68.2617 317.355 67.8143C317.363 67.7297 317.461 67.6117 317.428 67.5227C317.323 67.2979 316.012 67.1601 316.012 67.1601C314.274 67.0202 313.86 66.8912 313.711 67.0893C313.655 67.2117 313.638 67.3808 313.894 67.7926C314.199 68.5514 315.583 68.3977 316.057 68.362Z" fill="#482D1F"/>
<g id="card-content">
<path id="Button" d="M249.205 156.792L190.801 159.853C187.962 160.002 186.948 160.351 185.939 160.961C184.93 161.57 184.158 162.427 183.658 163.495C183.157 164.562 182.915 165.607 183.064 168.446L183.455 175.895C183.603 178.734 183.953 179.748 184.562 180.757C185.172 181.766 186.029 182.537 187.096 183.038C188.163 183.539 189.208 183.781 192.048 183.632L250.451 180.571C253.29 180.422 254.304 180.073 255.313 179.463C256.322 178.854 257.094 177.996 257.595 176.929C258.096 175.862 258.337 174.817 258.188 171.978L257.798 164.529C257.649 161.69 257.3 160.676 256.69 159.667C256.081 158.658 255.223 157.886 254.156 157.386C253.089 156.885 252.044 156.643 249.205 156.792Z" fill="#D3E2FF"/>
<path id="Title" d="M311.185 197.736L433.901 191.305C434.37 191.28 434.771 191.641 434.795 192.11L435.418 203.999C435.443 204.468 435.083 204.868 434.614 204.893L311.897 211.324C311.428 211.349 311.028 210.988 311.003 210.519L310.38 198.63C310.356 198.161 310.716 197.761 311.185 197.736Z" fill="#849AC4"/>
<path id="Title_2" d="M231.742 202.203L301.38 198.553C301.849 198.529 302.25 198.889 302.274 199.358L302.897 211.248C302.922 211.717 302.562 212.117 302.093 212.141L232.454 215.791C231.985 215.816 231.585 215.455 231.56 214.986L230.937 203.097C230.913 202.628 231.273 202.228 231.742 202.203Z" fill="#849AC4"/>
</g>
<path id="Fingers" d="M286.263 183.43C285.936 183.562 285.564 183.404 285.432 183.077C285.301 182.751 285.459 182.379 285.785 182.247C287.837 181.419 289.452 180.827 293.063 179.547C296.657 178.274 298.26 177.685 300.29 176.867C300.616 176.735 300.988 176.893 301.12 177.22C301.251 177.546 301.093 177.918 300.767 178.05C298.715 178.877 297.1 179.47 293.489 180.75C289.895 182.023 288.292 182.611 286.263 183.43ZM279.912 178.869C279.577 178.981 279.216 178.8 279.105 178.466C278.994 178.131 279.174 177.77 279.508 177.659C281.798 176.896 283.559 176.265 287.47 174.829C291.394 173.388 293.163 172.754 295.469 171.986C295.803 171.874 296.164 172.055 296.275 172.389C296.387 172.724 296.206 173.085 295.872 173.196C293.582 173.959 291.821 174.59 287.91 176.026C283.987 177.467 282.217 178.101 279.912 178.869Z" fill="#482D1F"/>
<path id="Shadow" d="M342.329 117.894C339.122 109.146 337.259 102.873 336.738 99.0453C336.691 98.6962 336.935 98.3747 337.284 98.3272C337.633 98.2797 337.955 98.5241 338.002 98.8732C338.508 102.585 340.35 108.788 343.527 117.455C343.648 117.786 343.479 118.152 343.148 118.274C342.817 118.395 342.451 118.225 342.329 117.894Z" fill="#482D1F"/>
</g>
</g>
</g>
</g>
</g>
<g id="Group 1426">
<path id="Rectangle 487" d="M349.399 152.199H402.777C427.906 152.199 448.277 172.57 448.277 197.699V429.315H303.899V197.699C303.899 172.57 324.27 152.199 349.399 152.199Z" stroke="white"/>
<path id="Rectangle 488" d="M303.899 2.0802H348.777C403.73 2.0802 448.277 46.6279 448.277 101.58V146.459H303.899V2.0802Z" stroke="white"/>
<path id="Rectangle 489" d="M202.766 103.213H294.998V190.148C294.998 206.164 282.014 219.148 265.998 219.148H231.766C215.75 219.148 202.766 206.164 202.766 190.148V103.213Z" stroke="white"/>
<path id="Rectangle 490" d="M130.633 5.2406H164.865C180.881 5.2406 193.865 18.2243 193.865 34.2406V190.148C193.865 206.164 180.881 219.148 164.865 219.148H130.633C114.617 219.148 101.633 206.164 101.633 190.148V34.2406C101.633 18.2244 114.617 5.2406 130.633 5.2406Z" stroke="white"/>
<rect id="Rectangle 491" x="0.5" y="103.213" width="93.8121" height="338.743" rx="29" stroke="white"/>
</g>
</g>
</g>
</svg>
