<svg
  width="453"
  height="446"
  viewBox="0 0 453 446"
  fill="none"
  xmlns="http://www.w3.org/2000/svg"
  id="img"
>
  <g id="Group 1">
    <path
      id="Vector"
      d="M205.526 343.177L204.616 272.427C204.288 246.922 224.699 225.98 250.204 225.652C275.709 225.324 296.651 245.734 296.979 271.239L297.137 283.524C297.552 315.814 271.712 342.326 239.423 342.741L205.526 343.177Z"
      fill="#F778BA"
      stroke="#6D4AFC"
    />
    <path
      id="Vector_2"
      d="M194.179 328.351L193.968 399.107C193.892 424.614 173.153 445.23 147.645 445.154C122.138 445.078 101.522 424.338 101.598 398.831L101.635 386.546C101.731 354.254 127.987 328.154 160.28 328.25L194.179 328.351Z"
      fill="#EAE4FF"
      stroke="#6D4AFC"
    />
    <path
      id="ball"
      d="M21.0826 95.2285C32.7262 95.2285 42.1652 85.7895 42.1652 74.1459C42.1652 62.5023 32.7262 53.0633 21.0826 53.0633C9.439 53.0633 0 62.5023 0 74.1459C0 85.7895 9.439 95.2285 21.0826 95.2285Z"
      fill="#F778BA"
    />
    <mask
      id="mask0_1_46"
      style="mask-type: alpha"
      maskUnits="userSpaceOnUse"
      x="0"
      y="0"
      width="453"
      height="446"
    >
      <g id="mask0_90_1575">
        <path
          id="Vector_3"
          d="M306.091 198.656C306.091 173.251 326.686 152.656 352.091 152.656H406.386C431.791 152.656 452.386 173.251 452.386 198.656V445.246H306.091V198.656Z"
          fill="#C4C4C4"
        />
        <path
          id="Vector_4"
          d="M306.091 1.59021H352.386C407.614 1.59021 452.386 46.3619 452.386 101.59V147.885H306.091V1.59021Z"
          fill="#C4C4C4"
        />
        <path
          id="Vector_5"
          d="M66.6892 103.361H30.2794C13.987 103.361 0.779388 116.569 0.779388 132.861V415.746C0.779388 432.038 13.987 445.246 30.2794 445.246H66.6892C82.9816 445.246 96.1892 432.038 96.1892 415.746V132.861C96.1892 116.569 82.9816 103.361 66.6892 103.361Z"
          fill="#C4C4C4"
        />
        <path
          id="Vector_6"
          d="M166.87 1.59021H132.05C115.758 1.59021 102.55 14.7978 102.55 31.0902V191.533C102.55 207.826 115.758 221.033 132.05 221.033H166.87C183.162 221.033 196.37 207.826 196.37 191.533V31.0902C196.37 14.7978 183.162 1.59021 166.87 1.59021Z"
          fill="#C4C4C4"
        />
        <path
          id="Vector_7"
          d="M204.32 103.361H298.14V191.533C298.14 207.825 284.932 221.033 268.64 221.033H233.82C217.528 221.033 204.32 207.825 204.32 191.533V103.361Z"
          fill="#C4C4C4"
        />
        <path
          id="Vector_8"
          d="M252.025 95.4098C278.372 95.4098 299.73 74.0516 299.73 47.7049C299.73 21.3582 278.372 0 252.025 0C225.679 0 204.32 21.3582 204.32 47.7049C204.32 74.0516 225.679 95.4098 252.025 95.4098Z"
          fill="#840B37"
        />
        <path
          id="Vector_9"
          d="M149.459 322.803C176.245 322.803 197.959 301.089 197.959 274.303C197.959 247.517 176.245 225.803 149.459 225.803C122.673 225.803 100.959 247.517 100.959 274.303C100.959 301.089 122.673 322.803 149.459 322.803Z"
          fill="#C4C4C4"
        />
      </g>
    </mask>
    <g mask="url(#mask0_1_46)">
      <g id="Group">
        <path
          id="Vector_10"
          d="M2.22597 58.1639H220.153C221.278 58.1639 222.189 59.3127 222.189 60.7305V378.596C222.189 380.014 221.278 381.164 220.153 381.164H2.22597C1.10121 381.164 0.189301 380.014 0.189301 378.596V60.7305C0.189301 59.3127 1.10121 58.1639 2.22597 58.1639Z"
          fill="#EAE4FF"
        />
        <path
          id="Vector_11"
          d="M172.453 92.1639V94.7403H199.675C199.877 94.7403 200.037 94.9319 200.037 95.1698H202.189C202.189 93.5088 201.065 92.1639 199.675 92.1639H172.453ZM138.727 92.1639V94.7403H168.148V92.1639H138.727ZM105 92.1639V94.7403H134.421V92.1639H105ZM71.2738 92.1639V94.7403H100.695V92.1639H71.2738ZM37.5473 92.1639V94.7403H66.9683V92.1639H37.5473ZM3.82084 92.1639V94.7403H33.2418V92.1639H3.82084ZM0.189301 131.569H2.34203V96.3541H0.189301V131.569ZM11.1806 162.164V159.588H2.70343C2.50219 159.588 2.34203 159.396 2.34203 159.158V136.722H0.189301V159.158C0.189301 160.819 1.31375 162.164 2.70343 162.164H11.1806ZM44.9071 162.164V159.588H15.4861V162.164H44.9071ZM78.6336 162.164V159.588H49.2126V162.164H78.6336ZM112.36 162.164V159.588H82.9391V162.164H112.36ZM146.086 162.164V159.588H116.665V162.164H146.086ZM179.813 162.164V159.588H150.392V162.164H179.813ZM202.189 145.195H200.037V159.158C200.037 159.395 199.875 159.588 199.675 159.588H184.118V162.164H199.675C201.063 162.164 202.189 160.819 202.189 159.158V145.195ZM202.189 104.827H200.037V140.042H202.189V104.827ZM202.189 95.1698H200.037V99.6742H202.189V95.1698Z"
          fill="#8B6FFF"
        />
        <path
          id="Vector_12"
          d="M222.189 62.8026C222.189 58.0311 219.165 54.1639 215.431 54.1639H7.94679C4.21472 54.1639 1.1893 58.0321 1.1893 62.8026V73.1639H222.189V62.8026Z"
          fill="#8B6FFF"
        />
        <path
          id="Vector_13"
          d="M209.159 67.9189C206.914 67.9189 205.095 66.0999 205.095 63.8549C205.095 61.6099 206.914 59.7899 209.159 59.7899C211.404 59.7899 213.224 61.6099 213.224 63.8549C213.224 66.0999 211.404 67.9189 209.159 67.9189Z"
          fill="#FF5645"
        />
        <path
          id="Vector_14"
          d="M195.895 67.9189C193.65 67.9189 191.83 66.0999 191.83 63.8549C191.83 61.6099 193.65 59.7899 195.895 59.7899C198.14 59.7899 199.96 61.6099 199.96 63.8549C199.96 66.0999 198.14 67.9189 195.895 67.9189Z"
          fill="#F778BA"
        />
        <path
          id="Vector_15"
          d="M182.202 67.9189C179.957 67.9189 178.137 66.0999 178.137 63.8549C178.137 61.6099 179.957 59.7899 182.202 59.7899C184.447 59.7899 186.267 61.6099 186.267 63.8549C186.267 66.0999 184.447 67.9189 182.202 67.9189Z"
          fill="#3ABF7C"
        />
        <path
          id="Vector_16"
          d="M202.157 180.868C202.157 179.926 201.516 179.164 200.718 179.164H2.62823C1.83357 179.164 1.1893 179.926 1.1893 180.868V253.075C1.1893 254.015 1.82987 254.778 2.62823 254.778H200.718C201.513 254.778 202.157 254.017 202.157 253.075V180.868ZM201.47 268.311H124.894C124.498 268.311 124.175 268.693 124.175 269.164V279.401C124.175 279.873 124.498 280.254 124.894 280.254H201.47C201.867 280.254 202.189 279.873 202.189 279.401V269.164C202.189 268.693 201.867 268.311 201.47 268.311ZM201.47 287.932H147.184C146.787 287.932 146.465 288.314 146.465 288.785V299.022C146.465 299.494 146.787 299.875 147.184 299.875H201.47C201.867 299.875 202.189 299.494 202.189 299.022V288.785C202.189 288.314 201.867 287.932 201.47 287.932ZM201.47 307.98H136.039C135.642 307.98 135.32 308.361 135.32 308.832V319.07C135.32 319.54 135.642 319.923 136.039 319.923H201.47C201.867 319.923 202.189 319.54 202.189 319.07V308.832C202.189 308.361 201.867 307.98 201.47 307.98ZM201.47 327.601H158.329C157.932 327.601 157.61 327.982 157.61 328.453V338.691C157.61 339.161 157.932 339.543 158.329 339.543H201.47C201.867 339.543 202.189 339.161 202.189 338.691V328.453C202.189 327.982 201.867 327.601 201.47 327.601ZM101.166 287.932H22.0737C21.6766 287.932 21.3547 288.314 21.3547 288.785V299.022C21.3547 299.494 21.6766 299.875 22.0737 299.875H101.166C101.564 299.875 101.885 299.494 101.885 299.022V288.785C101.885 288.314 101.564 287.932 101.166 287.932ZM101.166 307.98H12.0074C11.6102 307.98 11.2884 308.361 11.2884 308.832V319.07C11.2884 319.54 11.6102 319.923 12.0074 319.923H101.166C101.564 319.923 101.885 319.54 101.885 319.07V308.832C101.885 308.361 101.564 307.98 101.166 307.98ZM101.166 327.601H1.94103C1.54395 327.601 1.22198 327.982 1.22198 328.453V338.691C1.22198 339.161 1.54395 339.543 1.94103 339.543H101.166C101.564 339.543 101.885 339.161 101.885 338.691V328.453C101.885 327.982 101.564 327.601 101.166 327.601ZM101.166 347.221H32.1401C31.743 347.221 31.4211 347.603 31.4211 348.074V358.312C31.4211 358.782 31.743 359.164 32.1401 359.164H101.166C101.564 359.164 101.885 358.782 101.885 358.312V348.074C101.885 347.603 101.564 347.221 101.166 347.221ZM101.134 268.389H1.90835C1.51127 268.389 1.1893 268.771 1.1893 269.242V279.634C1.1893 280.105 1.51127 280.487 1.90835 280.487H101.134C101.531 280.487 101.853 280.105 101.853 279.634V269.242C101.853 268.771 101.531 268.389 101.134 268.389Z"
          fill="#F778BA"
        />
        <path
          id="Vector_17"
          fill-rule="evenodd"
          clip-rule="evenodd"
          d="M79.6921 231.762L81.4655 231.783L81.4524 231.762H103.149C103.624 231.762 103.806 231.436 103.557 231.036L88.1882 206.36C87.9385 205.959 87.523 205.956 87.2641 206.348L76.1845 223.286L71.9245 216.433C71.6748 216.031 71.2573 216.018 70.9887 216.408L61.1856 230.645C60.9184 231.033 61.0815 231.359 61.5578 231.374L70.5901 231.653L70.976 231.658L70.9143 231.762C70.9143 231.762 71.2974 231.762 71.774 231.762H79.6921ZM71.1224 210.152C73.0765 210.152 74.6606 208.555 74.6606 206.584C74.6606 204.613 73.0765 203.015 71.1224 203.015C69.1684 203.015 67.5843 204.613 67.5843 206.584C67.5843 208.555 69.1684 210.152 71.1224 210.152Z"
          fill="#6D4AFC"
        />
        <path
          id="Vector_18"
          d="M441.075 427.773H397.43C396.367 427.773 395.504 428.635 395.504 429.699C395.504 430.762 396.367 431.624 397.43 431.624H441.075C442.138 431.624 443 430.762 443 429.699C443 428.635 442.138 427.773 441.075 427.773ZM305.862 427.773H233.121C232.058 427.773 231.195 428.635 231.195 429.699C231.195 430.762 232.058 431.624 233.121 431.624H305.862C306.925 431.624 307.787 430.762 307.787 429.699C307.787 428.635 306.925 427.773 305.862 427.773Z"
          fill="#F778BA"
        />
        <path
          id="Vector_19"
          d="M232.901 427.786C232.973 427.778 233.047 427.773 233.121 427.773H305.862C305.987 427.773 306.11 427.785 306.228 427.808L302.791 400.393H270.614L262.955 406.041C261.2 407.795 259.275 409.378 257.221 410.79C252.215 414.128 249.605 414.085 241.988 417.765C239.934 418.749 237.966 419.819 235.998 421.06C235.056 421.916 233.388 423.627 232.874 425.681C232.789 426.023 232.789 426.366 232.746 426.665C232.746 427.065 232.805 427.44 232.901 427.786ZM396.881 427.853C397.055 427.801 397.239 427.773 397.43 427.773H441.075C441.188 427.773 441.3 427.783 441.408 427.802L431.072 401.271L400.435 405.421L396.881 427.853Z"
          fill="#474961"
        />
        <path
          id="Vector_20"
          d="M410.86 287.099C411.044 287.059 411.227 287.019 411.412 286.979C401.527 229.336 393.992 194.792 388.805 183.346C383.618 171.901 377.505 163.796 370.466 159.032C363.749 151.379 351.902 151.805 335.514 151.325C335.098 151.306 334.625 151.311 334.209 151.291C317.264 151.005 320.082 151.652 315.609 153.036C294.142 158.77 276.333 194.981 262.184 261.67L257.687 283.514C257.751 283.335 257.817 283.159 257.886 282.986C257.763 283.55 257.704 284.123 257.707 284.704C257.254 294.036 264.498 301.351 279.437 306.647C288.564 309.882 306.427 318.787 335.794 321.596C348.262 322.789 371.529 322.53 405.595 320.82C411.224 311.363 413.633 303.793 412.822 298.11C412.377 294.996 411.723 291.325 410.86 287.099Z"
          fill="#2F2E41"
        />
        <path
          id="Vector_21"
          opacity="0.176986"
          d="M410.883 287.211C360.837 298.067 323.858 297.228 299.945 284.696C276.499 272.408 262.488 271.798 257.913 282.866C257.772 283.469 257.704 284.082 257.707 284.704C257.254 294.036 264.498 301.351 279.437 306.647C288.564 309.882 306.427 318.787 335.794 321.596C348.262 322.788 371.529 322.53 405.595 320.82C411.224 311.363 413.633 303.793 412.822 298.11C412.381 295.023 411.735 291.39 410.883 287.211Z"
          fill="#444444"
        />
        <path
          id="Vector_22"
          d="M365.325 118.141C370.116 117.403 373.958 116.617 376.854 115.782C379.227 115.448 382.854 114.506 384.276 111.714C386.348 107.706 382.555 102.234 378.321 96.0879C373.224 88.7239 370.102 86.0679 365.19 82.5939C356.828 76.6799 351.664 76.4509 347.918 80.2559C347.541 80.6389 347.166 81.2719 346.792 82.1569C345.724 82.0009 344.631 81.9279 343.52 81.9439L334.107 82.1149C322.169 82.2439 312.67 92.4699 312.841 104.836V105.606L313.097 129.44L313.328 140.6C313.487 148.283 319.761 154.428 327.446 154.428H351.45C351.502 154.428 351.554 154.428 351.607 154.428C359.404 154.341 365.656 147.949 365.569 140.151L365.325 118.141Z"
          fill="#F778BA"
        />
        <path
          id="card"
          d="M169.726 130.655L451.496 113.17C453.554 113.043 455.31 114.915 455.418 117.353L460.184 225.029C460.292 227.466 458.711 229.545 456.652 229.673L174.883 247.158C172.824 247.286 171.069 245.413 170.96 242.976L166.195 135.299C166.086 132.862 167.668 130.783 169.726 130.655Z"
          fill="#6D4AFC"
        />
        <path
          id="Vector_23"
          d="M278.566 156.582L449.748 146.166C450.549 146.117 451.232 146.831 451.275 147.762L452.187 167.973C452.229 168.903 451.614 169.697 450.812 169.746L279.631 180.162C278.829 180.21 278.145 179.495 278.104 178.565L277.191 158.354C277.15 157.424 277.765 156.63 278.566 156.582Z"
          fill="#6D4AFC"
        />
        <path
          id="Vector_24"
          d="M330.71 76.1959L331.268 83.3039C331.296 83.6539 331.534 83.9509 331.869 84.0549C333.739 84.6319 335.556 84.8409 337.322 84.6829C339.137 84.5209 341.809 83.8699 345.335 82.7299C345.753 82.5949 346.001 82.1649 345.909 81.7349L343.073 68.5469L342.907 68.5949C344.463 65.4509 345.449 63.6929 345.863 63.3189C347.442 61.8069 348.689 52.4729 341.653 53.0359C340.878 53.0399 340.123 53.2619 339.398 53.6159L339.351 53.6539C339.116 53.8449 338.813 53.8559 338.511 53.8669C337.788 53.7909 337.245 53.2179 337.279 52.4899L338.063 41.3429C338.139 40.6193 337.64 40.0505 336.916 39.9745C335.342 39.809 333.819 39.5629 332.28 39.057C332.067 39.0346 331.902 38.9742 331.731 38.9563C330.217 38.625 322.058 37.2512 316.993 42.8709C316.547 43.4269 316.102 43.9819 315.741 44.5469C314.814 45.9979 314.295 47.6649 314.235 49.4649L313.889 57.2599C313.893 58.0339 313.898 58.8089 313.983 59.6359C315.019 69.4249 318.662 76.5199 322.299 77.1169C324.167 77.3569 326.062 77.3409 327.95 76.9799C328.19 76.8899 328.036 76.9639 330.71 76.1959ZM367.936 293.95L400.435 405.421L431.072 401.271L411.412 286.979L411.315 286.985C411.322 287.027 411.329 287.07 411.336 287.113C395.578 290.548 381.111 292.827 367.936 293.95ZM310.747 289.268C306.891 287.973 303.29 286.449 299.945 284.696C276.915 272.626 262.988 271.824 258.165 282.288C255.407 291.078 254.618 299.1 255.799 306.353C259.342 328.127 264.281 359.473 270.614 400.393H302.791L302.235 308.526L310.747 289.268ZM382.662 113.505C380.934 114.92 378.493 115.5 376.738 115.746C371.413 117.283 362.883 118.654 351.149 119.859L357.234 143.675L318.692 157.455C318.503 157.495 317.603 157.855 315.992 158.533C299.281 163.294 288.149 167.608 282.596 171.477C278.29 174.477 279.164 178.403 285.219 183.255C290.038 187.117 296.503 188.234 302.338 186.213L327.248 177.587C327.247 177.556 327.245 177.526 327.244 177.495C358.465 174.092 377.259 167.381 383.627 157.362C389.503 148.119 389.181 133.499 382.662 113.505ZM286.256 123.457C275.956 112.861 266.528 111.157 257.974 118.344C249.419 125.531 258.846 127.235 286.256 123.457Z"
          fill="#FFCDCD"
        />
        <path
          id="Vector_25"
          d="M354.939 58.7199C356.236 59.2339 357.519 59.4319 358.787 59.3129C367.179 58.5289 372.867 51.1569 375.113 43.9499C377.36 36.7435 373.413 33.0463 367.098 29.0141C360.784 24.9818 353.556 27.8567 347.53 30.9736C344.008 32.7953 341.941 35.9552 341.331 40.4534C340.378 40.367 339.326 40.258 338.15 40.1043C336.788 39.9612 335.27 39.5913 332.744 39.0677C332.531 39.0453 331.333 38.7496 331.163 38.7317C329.649 38.4005 322.011 37.2893 316.945 42.9099C316.974 43.0419 318.284 42.9099 322.118 45.4549C326.483 48.3529 330.785 61.0579 334.635 60.8599C334.677 60.8589 334.764 60.9019 334.895 60.9879L334.724 60.8259L337.082 55.9969C337.615 55.0209 338.423 54.2879 339.346 53.6969C340.072 53.3429 340.826 53.1209 341.601 53.1159C343.662 53.1609 345.709 54.9679 346.341 57.1419C346.93 59.3129 346.301 61.6129 344.642 63.0729C343.594 64.0389 342.241 64.6279 340.81 64.7359L339.07 64.5199C339.141 64.5829 339.212 64.6459 339.284 64.7109C342.25 69.3899 343.733 71.7299 343.733 71.7299C343.733 71.7299 345.018 71.3839 347.587 70.6919C350.745 69.5989 353.196 65.6089 354.939 58.7199ZM320.125 55.6349C320.954 55.9369 322.294 56.2929 323.516 56.1199C325.561 55.9049 323.814 54.5169 321.993 54.2389C321.146 54.1069 320.43 54.3759 319.969 54.6719C319.639 54.9379 319.709 55.5049 320.125 55.6349ZM312.909 54.7039C313.729 55.0919 315.012 55.5709 316.264 55.5299C318.381 55.4509 316.737 53.9019 314.972 53.5009C314.049 53.2749 313.379 53.5059 312.88 53.7549C312.47 53.9699 312.497 54.5319 312.909 54.7039Z"
          fill="#482D1F"
        />
        <path
          id="Vector_26"
          d="M322.512 61.1779C322.991 60.7119 322.946 59.5019 322.894 58.7649C322.91 58.2079 322.435 57.8139 321.967 57.7639C321.665 57.7759 321.264 57.9059 321.116 58.4929C320.671 59.8659 321.869 61.9709 322.512 61.1779ZM315.495 60.3969C315.889 59.9219 315.929 58.7219 315.877 57.9849C315.893 57.4269 315.418 57.0329 314.95 56.9839C314.648 56.9949 314.247 57.1249 314.099 57.7119C313.654 59.0849 314.895 61.1949 315.495 60.3969Z"
          fill="#482D1F"
        />
        <path
          id="Vector_27"
          d="M316.262 57.2229C316.255 56.9869 316.441 56.7889 316.677 56.7819C316.913 56.7749 317.111 56.9609 317.118 57.1969L317.194 59.7439L317.193 59.7969L316.761 64.3109C316.772 64.3629 316.808 64.4009 316.863 64.4119C317.377 64.4089 318.037 64.4099 318.844 64.4129C319.08 64.4129 319.271 64.6059 319.27 64.8419C319.27 65.0779 319.077 65.2689 318.841 65.2679C318.02 65.2649 317.352 65.2649 316.837 65.2679L316.79 65.2659C316.293 65.2139 315.933 64.8189 315.904 64.3399L315.905 64.2729L316.338 59.7419L316.262 57.2229Z"
          fill="#482D1F"
        />
        <path
          id="Vector_28"
          d="M318.829 68.7929C319.131 68.7819 319.915 68.6919 320.134 68.2419C320.143 68.1569 320.242 68.0379 320.208 67.9489C320.103 67.7219 318.784 67.5839 318.784 67.5839C317.034 67.4429 316.618 67.3129 316.468 67.5119C316.412 67.6359 316.394 67.8059 316.652 68.2199C316.959 68.9839 318.352 68.8289 318.829 68.7929Z"
          fill="#482D1F"
        />
        <g id="card-content">
          <path
            id="Vector_29"
            d="M251.555 157.781L192.784 160.861C189.926 161.01 188.906 161.362 187.891 161.976C186.876 162.589 186.099 163.452 185.595 164.525C185.091 165.599 184.848 166.651 184.998 169.508L185.39 177.004C185.54 179.861 185.892 180.881 186.505 181.896C187.119 182.912 187.981 183.688 189.055 184.192C190.129 184.696 191.181 184.939 194.038 184.79L252.809 181.71C255.667 181.56 256.687 181.208 257.702 180.595C258.717 179.981 259.494 179.119 259.998 178.045C260.502 176.971 260.745 175.919 260.595 173.062L260.203 165.567C260.053 162.71 259.701 161.689 259.088 160.674C258.474 159.659 257.612 158.882 256.538 158.378C255.464 157.874 254.412 157.631 251.555 157.781Z"
            fill="#F778BA"
          />
          <path
            id="Vector_30"
            d="M313.926 198.983L437.416 192.511C437.888 192.486 438.291 192.849 438.315 193.321L438.942 205.285C438.967 205.757 438.605 206.16 438.133 206.185L314.642 212.657C314.17 212.681 313.768 212.319 313.743 211.847L313.116 199.882C313.091 199.41 313.454 199.008 313.926 198.983Z"
            fill="#EAE4FF"
          />
          <path
            id="Vector_31"
            d="M233.982 203.478L304.059 199.805C304.531 199.78 304.934 200.143 304.959 200.615L305.586 212.579C305.611 213.051 305.248 213.454 304.776 213.479L234.699 217.151C234.227 217.176 233.824 216.814 233.799 216.342L233.172 204.377C233.147 203.905 233.51 203.503 233.982 203.478Z"
            fill="#EAE4FF"
          />
        </g>
        <path
          id="Vector_32"
          d="M288.846 184.587C288.518 184.719 288.144 184.56 288.011 184.232C287.878 183.903 288.037 183.529 288.366 183.396C290.431 182.563 292.056 181.967 295.69 180.679C299.306 179.398 300.92 178.806 302.962 177.982C303.291 177.849 303.665 178.008 303.797 178.337C303.93 178.666 303.771 179.04 303.442 179.172C301.377 180.005 299.752 180.601 296.119 181.889C292.502 183.171 290.889 183.763 288.846 184.587ZM282.455 179.997C282.119 180.109 281.756 179.927 281.644 179.591C281.532 179.255 281.713 178.891 282.05 178.779C284.354 178.012 286.126 177.377 290.062 175.931C294.01 174.481 295.79 173.843 298.111 173.07C298.447 172.958 298.81 173.14 298.922 173.476C299.034 173.812 298.853 174.176 298.516 174.288C296.212 175.055 294.44 175.69 290.504 177.136C286.556 178.586 284.776 179.224 282.455 179.997Z"
          fill="#482D1F"
        />
        <path
          id="Vector_33"
          d="M345.267 118.638C342.039 109.834 340.165 103.522 339.64 99.6699C339.592 99.3189 339.838 98.9949 340.19 98.9469C340.541 98.8989 340.864 99.1449 340.912 99.4969C341.421 103.232 343.275 109.474 346.472 118.196C346.594 118.529 346.423 118.897 346.09 119.019C345.757 119.141 345.389 118.971 345.267 118.638Z"
          fill="#482D1F"
        />
      </g>
      <g id="Group 3">
        <path
          id="Vector_34"
          d="M306.591 198.656C306.591 173.527 326.962 153.156 352.091 153.156H406.386C431.515 153.156 451.886 173.527 451.886 198.656V432.025H306.591V198.656Z"
          stroke="#6D4AFC"
        />
        <path
          id="Vector_35"
          d="M306.591 2.09021H352.386C407.338 2.09021 451.886 46.6379 451.886 101.59V147.385H306.591V2.09021Z"
          stroke="#6D4AFC"
        />
        <path
          id="Vector_36"
          d="M204.82 103.861H297.64V191.533C297.64 207.549 284.656 220.533 268.64 220.533H233.82C217.804 220.533 204.82 207.549 204.82 191.533V103.861Z"
          stroke="#6D4AFC"
        />
        <path
          id="Vector_37"
          d="M103.05 34.2706C103.05 18.2544 116.033 5.27057 132.05 5.27057H166.869C182.886 5.27057 195.869 18.2543 195.869 34.2706V191.533C195.869 207.549 182.886 220.533 166.869 220.533H132.05C116.033 220.533 103.05 207.549 103.05 191.533V34.2706Z"
          stroke="#6D4AFC"
        />
        <path
          id="Vector_38"
          d="M66.6892 103.861H30.2794C14.2631 103.861 1.27939 116.845 1.27939 132.861V415.746C1.27939 431.762 14.2631 444.746 30.2794 444.746H66.6892C82.7055 444.746 95.6892 431.762 95.6892 415.746V132.861C95.6892 116.845 82.7055 103.861 66.6892 103.861Z"
          stroke="#6D4AFC"
        />
      </g>
    </g>
  </g>
</svg>
